# xmcd
#
# Track frame offsets: 
#        150
#        10570
#        22377
#        32500
#        43410
#        55665
#        67020
#        79280
#        91100
#        101790
#        111937
#        122752
#        134780
#        144855
#        155770
#        168522
#        180720
#        193662
#        203682
#        215355
#        228532
#        242437
#        253877
#        265000
#        278645
#
# Disc length: 3869 seconds
#
# Revision: 2
# Processed by: cddbd v1.5.2PL0 Copyright (c) Steve Scherf et al.
# Submitted via: ExactAudioCopyFreeDBPlugin 1.0
#
DISCID=6c0f1b19
DTITLE=Billy Walker - Cross the Brazos at Waco - Disc 1
DYEAR=1993
DGENRE=Country
TTITLE0=Headin' For Heartaches
TTITLE1=I'm Gonna Take My Heart Away From You
TTITLE2=You're Gonna Pay With A Broken Heart
TTITLE3=You Didn't Try And Didn't Care
TTITLE4=Too Many Times
TTITLE5=Dirt 'Neath Your Feet
TTITLE6=I Guess I'll Have To Die
TTITLE7=Anything Your Heart Desires
TTITLE8=The Last Kiss Is The Sweetest
TTITLE9=Alcohol Love
TTITLE10=I Ain't Got No Roses
TTITLE11=Beautiful Brown Eyes
TTITLE12=Don't Tell A Soul I Love You
TTITLE13=She's Got Honky Tonk Blood (In Her Veins)
TTITLE14=What Would You Do
TTITLE15=Always Think Of You
TTITLE16=Ting-A-Ling
TTITLE17=Fifteen Hugs Past Midnight (Twenty Kisses 'til One)
TTITLE18=Millie My Darling
TTITLE19=Anything Your Heart Desires
TTITLE20=What Makes Me Love You (Like I Do)
TTITLE21=One Heart's Beatin' One Heart's Cheatin'
TTITLE22=If I Should Live That Long
TTITLE23=Stolen Love
TTITLE24=Who Took My Ring From Our Finger
EXTD=
EXTT0=
EXTT1=
EXTT2=
EXTT3=
EXTT4=
EXTT5=
EXTT6=
EXTT7=
EXTT8=
EXTT9=
EXTT10=
EXTT11=
EXTT12=
EXTT13=
EXTT14=
EXTT15=
EXTT16=
EXTT17=
EXTT18=
EXTT19=
EXTT20=
EXTT21=
EXTT22=
EXTT23=
EXTT24=
PLAYORDER=
